<?xml version="1.0" encoding="UTF-8"?>
<svg id="Layer_1" data-name="Layer 1" xmlns="http://www.w3.org/2000/svg" viewBox="0 0 793.25 800">
    <defs>
        <style>
            .cls-1 {
            fill: #fff;
            }

            .cls-2 {
            fill: #3f51b5;
            }
        </style>
    </defs>
    <path class="cls-2"
          d="M396.56,0C177.44.03,0,179.05,0,400s177.47,400,396.62,400,396.62-179.02,396.62-400S615.68.03,396.56,0Z"/>
    <path class="cls-1"
          d="M585.48,519.31c-14.33-.12-19.93-8.48-19.93-8.48-.78-3.9-2.08-60.42-2.6-116.92-.53-58.47,0-117.05,2.88-117.2,16.52-31,69.15-93.5,69.15-93.5-98.3,19.4-151.82,83.85-151.82,83.85-15.88-12.5-48.18-10.42-48.18-10.42,15.1,8.32,30.2,32.55,30.2,52.6v197.4s-32.95,29.02-58.33,29.02c-15.1,0-24.35-8.2-29.42-14.97-1.95-2.6-3.65-5.47-4.95-8.6v-243.75c-3.52,2.6-7.82,4.02-12.1,4.17-5.47,0-11.08-2.73-14.85-10.68-2.88-6-4.7-14.97-4.7-28.12,0-43.36,47.28-72.64,50.59-74.64-64.52,17.34-124.27,50.55-203.89,141.89-79.67,91.4-64.58,166.92-64.58,166.92,0,0,22-51.95,74.88-106.65,25.12-25.9,43.75-34.62,56.65-34.62,11.45-.65,21.1,8.6,21.1,20.05v185.55c0,18.35-11.85,22.4-22.78,22.12-9.25-.12-17.85-3.38-17.85-3.38,54.3,78.9,184.25,89.98,184.25,89.98l57.02-60.95,1.3,1.18,52.22,44.52c95.58-56.77,141.67-161.97,141.67-161.97-42.7,45.05-69.8,55.6-85.95,55.6Z"/>
    <path class="cls-1"
          d="M597.18,376.41l-17.44,17.44c-3.1,3.1-4.76,7.2-4.76,11.57s1.72,8.47,4.76,11.57l3.38,3.38-2.05,2.05c-6.14,6.14-16.16,6.14-22.36,0l-17.38-17.38c-11.46-11.46-30.06-11.46-41.51,0-11.46,11.46-11.46,30.06,0,41.51l17.38,17.44c2.99,2.99,4.65,6.97,4.65,11.18s-1.66,8.19-4.65,11.18c-2.66,2.66-2.66,6.92,0,9.58,1.33,1.33,3.04,1.99,4.82,1.99s3.49-.66,4.82-1.99c5.54-5.54,8.58-12.9,8.58-20.76s-3.04-15.22-8.58-20.76l-17.38-17.44c-6.14-6.14-6.14-16.16,0-22.36,6.14-6.2,16.16-6.14,22.36,0l17.38,17.32c11.46,11.46,30.06,11.46,41.51,0l2.05-2.05,3.38,3.38c3.21,3.21,7.36,4.76,11.57,4.76s8.36-1.61,11.57-4.76l17.44-17.44c6.31,2.05,12.84,3.15,19.37,3.15,15.89,0,31.77-6.03,43.84-18.1l30.5-30.5,5.48,5.48c1.33,1.33,3.04,1.99,4.82,1.99s3.49-.66,4.82-1.99c2.66-2.66,2.66-6.92,0-9.58l-22.42-22.42,37.08-37.08c2.66-2.66,2.66-6.92,0-9.58s-6.92-2.66-9.58,0l-37.08,37.08-34.7-34.65,37.08-37.08c2.66-2.66,2.66-6.92,0-9.58s-6.92-2.66-9.58,0l-37.08,37.08-22.42-22.42c-2.66-2.66-6.92-2.66-9.58,0-2.66,2.66-2.66,6.92,0,9.58l5.48,5.48-30.5,30.5c-17.1,17.1-22.08,41.68-15.06,63.21ZM621.76,391.3c-18.87-18.87-18.87-49.59,0-68.47l30.5-30.5,68.52,68.41-30.5,30.5c-18.93,18.93-49.65,18.93-68.52.06ZM603.27,389.53c2.49,4.04,5.42,7.86,8.91,11.35s7.31,6.42,11.35,8.91l-13.95,13.95c-1.05,1.11-2.82,1.11-3.93,0l-16.33-16.33c-.72-.72-.83-1.55-.83-1.94,0-.44.11-1.27.83-1.94l13.95-14Z"/>
</svg>